<?xml version="1.0" encoding="UTF-8" standalone="no"?>
<!-- Created with Inkscape (http://www.inkscape.org/) -->

<svg
   width="210mm"
   height="297mm"
   viewBox="0 0 210 297"
   version="1.1"
   id="svg1"
   inkscape:version="1.4.2 (ebf0e940d0, 2025-05-08)"
   sodipodi:docname="fern.svg"
   xmlns:inkscape="http://www.inkscape.org/namespaces/inkscape"
   xmlns:sodipodi="http://sodipodi.sourceforge.net/DTD/sodipodi-0.dtd"
   xmlns="http://www.w3.org/2000/svg"
   xmlns:svg="http://www.w3.org/2000/svg">
  <sodipodi:namedview
     id="namedview1"
     pagecolor="#ffffff"
     bordercolor="#000000"
     borderopacity="0.25"
     inkscape:showpageshadow="2"
     inkscape:pageopacity="0.0"
     inkscape:pagecheckerboard="0"
     inkscape:deskcolor="#d1d1d1"
     inkscape:document-units="mm"
     inkscape:zoom="1.28"
     inkscape:cx="302.73438"
     inkscape:cy="564.0625"
     inkscape:window-width="1920"
     inkscape:window-height="1015"
     inkscape:window-x="0"
     inkscape:window-y="0"
     inkscape:window-maximized="1"
     inkscape:current-layer="layer1" />
  <defs
     id="defs1" />
  <g
     inkscape:label="Layer 1"
     inkscape:groupmode="layer"
     id="layer1">
    <path
       style="opacity:1;fill:#00f186;fill-opacity:1;stroke-width:0.53083;paint-order:stroke fill markers"
       d="m 35.911801,167.89546 -1.016461,6.97758 18.804532,-11.21396 -6.861113,-17.44394 6.098768,-22.67714 4.319959,-20.18514 c 0,0 -14.484571,15.94876 -14.992803,16.94555 -0.50823,0.99679 -12.705764,33.3927 -12.705764,34.3895 0,0.99679 6.352882,13.20755 6.352882,13.20755 z"
       id="path2" />
    <path
       style="fill:#00f186;fill-opacity:1;stroke-width:0.429729;paint-order:stroke fill markers"
       d="m 56.286766,159.73795 -0.781309,5.94909 14.45423,-9.56104 -5.273841,-14.87272 4.687859,-19.33455 3.320565,-17.20988 c 0,0 -11.133662,13.59793 -11.524318,14.4478 -0.390655,0.84986 -9.766371,28.47065 -9.766371,29.32052 0,0.84987 4.883185,11.26078 4.883185,11.26078 z"
       id="path2-3" />
    <path
       style="fill:#00f186;fill-opacity:1;stroke-width:0.347839;paint-order:stroke fill markers"
       d="m 71.173026,155.5205 -0.997532,5.01897 11.694914,-7.26915 -3.032084,-12.98387 4.884826,-16.18191 3.696475,-14.45515 c 0,0 -9.427499,10.90743 -9.78336,11.60757 -0.355861,0.70013 -9.3824,23.65539 -9.439563,24.37912 -0.05716,0.72374 2.976324,9.88442 2.976324,9.88442 z"
       id="path2-3-1" />
    <path
       style="fill:#00f186;fill-opacity:1;stroke-width:0.321314;paint-order:stroke fill markers"
       d="m 84.312944,150.22497 -1.644433,4.68728 10.752158,-3.95292 -0.32932,-13.67861 6.664531,-14.65084 5.40861,-13.27203 c 0,0 -9.502096,8.17813 -9.908459,8.77205 -0.406363,0.59391 -11.572998,20.79705 -11.739339,21.49694 -0.166337,0.69989 0.796252,10.59813 0.796252,10.59813 z"
       id="path2-3-1-3" />
    <path
       style="fill:#00f186;fill-opacity:1;stroke-width:0.352635;paint-order:stroke fill markers"
       d="m 98.910983,147.53581 -2.354599,3.94288 15.395616,-3.32514 -0.47155,-11.50625 9.54269,-12.32407 7.74438,-11.16424 c 0,0 -13.60568,6.87932 -14.18754,7.37892 -0.58185,0.49959 -16.570942,17.49418 -16.809118,18.08291 -0.238175,0.58874 1.140121,8.91499 1.140121,8.91499 z"
       id="path2-3-1-3-6"
       inkscape:transform-center-x="14.681808"
       inkscape:transform-center-y="0.20127772" />
    <path
       style="fill:#00f186;fill-opacity:1;stroke-width:0.246939;paint-order:stroke fill markers"
       d="m 119.57762,141.47193 -1.43289,3.1772 9.369,-2.67942 -0.28696,-9.27182 5.8072,-9.93083 4.71285,-8.99623 c 0,0 -8.27974,5.54342 -8.63383,5.94599 -0.35409,0.40257 -10.08425,14.09694 -10.22919,14.57135 -0.14494,0.47441 0.69382,7.18376 0.69382,7.18376 z"
       id="path2-3-1-3-6-2"
       inkscape:transform-center-x="8.9346127"
       inkscape:transform-center-y="0.16218805" />
    <path
       style="fill:#00f186;fill-opacity:1;stroke-width:0.244196;paint-order:stroke fill markers"
       d="m 131.13561,138.80129 -2.11091,2.53322 10.58219,-0.68786 1.34047,-8.18566 8.03086,-7.68217 6.68419,-7.05642 c 0,0 -9.91698,3.39395 -10.37054,3.6843 -0.45356,0.29035 -13.38546,10.57819 -13.62622,10.96869 -0.24075,0.3905 -0.53004,6.4259 -0.53004,6.4259 z"
       id="path2-3-1-3-6-2-5"
       inkscape:transform-center-x="9.6657129"
       inkscape:transform-center-y="-1.4435597" />
    <path
       style="fill:#00f186;fill-opacity:1;stroke-width:0.209851;paint-order:stroke fill markers"
       d="m 145.31253,134.31139 -2.19168,1.76286 9.6642,0.77006 2.11611,-6.38014 8.12277,-5.14272 6.83365,-4.81022 c 0,0 -9.35949,1.47743 -9.80244,1.65308 -0.44294,0.17565 -13.29348,6.79108 -13.55464,7.07338 -0.26115,0.28232 -1.18797,5.0737 -1.18797,5.0737 z"
       id="path2-3-1-3-6-2-5-9"
       inkscape:transform-center-x="8.5990377"
       inkscape:transform-center-y="-1.9755283" />
    <path
       style="fill:#00f186;fill-opacity:1;stroke-width:0.209851;paint-order:stroke fill markers"
       d="m 159.57977,133.14104 -2.53756,1.21323 9.23,2.96596 3.52295,-5.72477 9.08571,-3.14273 7.7547,-3.11475 c 0,0 -9.44886,-0.70849 -9.92029,-0.63911 -0.47141,0.0694 -14.49664,3.56128 -14.81558,3.77616 -0.31894,0.21491 -2.31993,4.66601 -2.31993,4.66601 z"
       id="path2-3-1-3-6-2-5-9-2"
       inkscape:transform-center-x="7.8284527"
       inkscape:transform-center-y="-3.1087394" />
    <path
       style="fill:#00f186;fill-opacity:1;stroke-width:0.606046;paint-order:stroke fill markers"
       d="m 48.350757,193.6769 -8.092459,-4.27378 22.661272,-7.33042 14.944085,18.45939 27.872335,11.57833 24.18603,11.22274 c 0,0 -25.33553,0.28772 -26.69573,-0.0226 -1.36019,-0.31035 -43.137506,-13.96902 -44.211914,-14.69963 -1.0744,-0.7306 -10.663619,-14.934 -10.663619,-14.934 z"
       id="path2-4" />
    <path
       style="fill:#00f186;fill-opacity:1;stroke-width:0.490619;paint-order:stroke fill markers"
       d="m 68.600675,182.8076 -6.851659,-3.71439 18.433399,-4.94459 13.065193,15.26221 23.476092,10.29506 20.41715,9.86838 c 0,0 -20.91738,-0.76015 -22.05311,-1.06003 -1.13571,-0.29987 -36.179322,-12.79196 -37.095368,-13.41488 -0.916037,-0.62292 -9.391697,-12.29176 -9.391697,-12.29176 z"
       id="path2-3-7" />
    <path
       style="fill:#00f186;fill-opacity:1;stroke-width:0.397126;paint-order:stroke fill markers"
       d="m 81.517344,173.58909 -5.970712,-2.85386 14.411436,-4.34274 12.289852,12.02402 20.18874,7.8214 17.65929,7.53842 c 0,0 -17.05799,-0.19897 -18.01276,-0.41787 -0.95474,-0.2189 -30.773196,-9.58006 -31.585425,-10.06327 -0.812257,-0.48317 -8.980421,-9.7061 -8.980421,-9.7061 z"
       id="path2-3-1-8" />
    <path
       style="fill:#00f186;fill-opacity:1;stroke-width:0.366843;paint-order:stroke fill markers"
       d="m 96.432722,167.99333 -5.879863,-2.33667 10.560501,-5.53471 14.09146,10.92859 19.2904,6.08183 17.09888,6.01329 c 0,0 -14.22637,1.2387 -15.08982,1.1013 -0.86346,-0.13741 -28.64661,-6.9402 -29.47719,-7.35257 -0.8306,-0.41238 -10.594368,-8.90106 -10.594368,-8.90106 z"
       id="path2-3-1-3-4" />
    <path
       style="fill:#00f186;fill-opacity:1;stroke-width:0.402602;paint-order:stroke fill markers"
       d="m 107.78839,160.84531 -5.57394,-0.94293 12.24129,-10.29374 12.13703,8.8236 18.64971,1.14206 16.38835,1.77901 c 0,0 -15.0657,6.20851 -15.93139,6.32348 -0.86568,0.11496 -28.17452,0.88024 -28.94301,0.64568 -0.76852,-0.23458 -8.96804,-7.47716 -8.96804,-7.47716 z"
       id="path2-3-1-3-6-5"
       inkscape:transform-center-x="8.4728087"
       inkscape:transform-center-y="10.35308" />
    <path
       style="fill:#00f186;fill-opacity:1;stroke-width:0.281929;paint-order:stroke fill markers"
       d="m 123.67189,150.6807 -4.23034,-1.14388 8.15642,-5.7835 9.83241,7.0332 13.96959,2.47686 12.34683,2.69675 c 0,0 -10.6309,2.78357 -11.26392,2.7813 -0.63303,-0.002 -20.86516,-1.99367 -21.45802,-2.22155 -0.59285,-0.22787 -7.35297,-5.83918 -7.35297,-5.83918 z"
       id="path2-3-1-3-6-2-0"
       inkscape:transform-center-x="5.1989249"
       inkscape:transform-center-y="5.7682352" />
    <path
       style="fill:#00f186;fill-opacity:1;stroke-width:0.278798;paint-order:stroke fill markers"
       d="m 136.91325,146.36483 -3.83628,-0.80121 8.04298,-6.93519 8.56261,6.50554 12.77354,1.26529 11.24865,1.65714 c 0,0 -10.09839,3.99247 -10.68612,4.05187 -0.58772,0.0594 -19.21673,-0.0793 -19.74888,-0.26324 -0.53217,-0.18396 -6.3565,-5.4802 -6.3565,-5.4802 z"
       id="path2-3-1-3-6-2-5-3"
       inkscape:transform-center-x="5.4164889"
       inkscape:transform-center-y="6.7889419" />
    <path
       style="fill:#00f186;fill-opacity:1;stroke-width:0.203776;paint-order:stroke fill markers"
       d="m 153.64929,141.70091 -2.85607,-0.14787 5.74763,-5.8843 6.50637,3.72185 9.47067,-0.516 8.35523,-0.0641 c 0,0 -7.34799,3.99784 -7.78047,4.10614 -0.43249,0.10829 -14.19695,2.08798 -14.59517,2.01509 -0.39822,-0.0729 -4.84819,-3.23086 -4.84819,-3.23086 z"
       id="path2-3-1-3-6-2-5-9-6"
       inkscape:transform-center-x="3.7715862"
       inkscape:transform-center-y="6.6369451" />
    <path
       style="opacity:1;fill:#00985d;stroke-width:0.436033;paint-order:stroke fill markers;fill-opacity:1"
       d="m 19.016927,183.76139 30.179036,-20.05045 30.592447,-10.542 31.00586,-10.33528 37.62044,-8.68164 11.36882,0.62011 19.43033,-0.41341 16.74317,2.48047 -13.43587,0.20671 -15.29623,0.2067 -17.77669,2.27377 -7.44141,2.68717 -15.91634,6.82129 -13.02246,7.02799 -17.363279,7.64812 -14.882812,8.06152 -14.882812,7.85482 -26.044922,11.98893 -7.854817,5.99446 z"
       id="path1" />
  </g>
</svg>
