<?xml version="1.0" encoding="UTF-8" standalone="no"?>
<!-- Created with Inkscape (http://www.inkscape.org/) -->

<svg
   width="210mm"
   height="297mm"
   viewBox="0 0 210 297"
   version="1.1"
   id="svg1"
   inkscape:version="1.4.2 (ebf0e940d0, 2025-05-08)"
   sodipodi:docname="pixel.svg"
   xmlns:inkscape="http://www.inkscape.org/namespaces/inkscape"
   xmlns:sodipodi="http://sodipodi.sourceforge.net/DTD/sodipodi-0.dtd"
   xmlns="http://www.w3.org/2000/svg"
   xmlns:svg="http://www.w3.org/2000/svg">
  <sodipodi:namedview
     id="namedview1"
     pagecolor="#ffffff"
     bordercolor="#000000"
     borderopacity="0.25"
     inkscape:showpageshadow="2"
     inkscape:pageopacity="0.0"
     inkscape:pagecheckerboard="0"
     inkscape:deskcolor="#d1d1d1"
     inkscape:document-units="mm"
     inkscape:zoom="0.64"
     inkscape:cx="472.65625"
     inkscape:cy="721.875"
     inkscape:window-width="1920"
     inkscape:window-height="1015"
     inkscape:window-x="0"
     inkscape:window-y="0"
     inkscape:window-maximized="1"
     inkscape:current-layer="layer1" />
  <defs
     id="defs1" />
  <g
     inkscape:label="Layer 1"
     inkscape:groupmode="layer"
     id="layer1">
    <rect
       style="fill:#ff6200;fill-opacity:1;stroke-width:0.288863;paint-order:stroke fill markers"
       id="rect2-0"
       width="246.39322"
       height="38.240562"
       x="-10.682551"
       y="186.63046" />
    <rect
       style="opacity:1;fill:#00f186;fill-opacity:1;stroke-width:0.288863;paint-order:stroke fill markers"
       id="rect2"
       width="246.39322"
       height="38.240562"
       x="-8.8883467"
       y="162.67741" />
    <ellipse
       style="opacity:1;fill:#00e17d;fill-opacity:1;stroke-width:0.436033;paint-order:stroke fill markers"
       id="path2"
       cx="7.8548207"
       cy="188.92903"
       rx="10.748698"
       ry="7.0279946" />
    <path
       style="opacity:1;fill:#00bc69;fill-opacity:1;stroke-width:0.327025;paint-order:stroke fill markers"
       d="m -4.134113,174.9764 5.581053,12.40234 8.68164,0.31006 3.720704,-5.58106 6.821289,-3.41064 -5.891114,-0.62012 -6.201171,4.65089 1.550292,-6.8213 2.790528,-5.27099 -6.51123,6.20117 v 7.75146 l -4.34082,-4.34082 z"
       id="path3" />
    <ellipse
       style="fill:#00e17d;fill-opacity:1;stroke-width:0.436033;paint-order:stroke fill markers"
       id="path2-7"
       cx="45.177605"
       cy="181.78941"
       rx="10.748698"
       ry="7.0279946" />
    <path
       style="fill:#00bc69;fill-opacity:1;stroke-width:0.327025;paint-order:stroke fill markers"
       d="m 33.188673,167.83678 5.581053,12.40234 8.68164,0.31006 3.720704,-5.58106 6.821289,-3.41064 -5.891114,-0.62012 -6.201171,4.65089 1.550292,-6.8213 2.790528,-5.27099 -6.51123,6.20117 v 7.75146 l -4.34082,-4.34082 z"
       id="path3-4" />
    <ellipse
       style="fill:#00e17d;fill-opacity:1;stroke-width:0.436033;paint-order:stroke fill markers"
       id="path2-8"
       cx="94.274345"
       cy="189.95842"
       rx="10.748698"
       ry="7.0279946" />
    <path
       style="fill:#00bc69;fill-opacity:1;stroke-width:0.327025;paint-order:stroke fill markers"
       d="m 82.285417,176.00579 5.581053,12.40234 8.68164,0.31006 3.7207,-5.58106 6.82129,-3.41064 -5.89111,-0.62012 -6.201172,4.65089 1.550292,-6.8213 2.790528,-5.27099 -6.51123,6.20117 v 7.75146 l -4.34082,-4.34082 z"
       id="path3-6" />
    <ellipse
       style="fill:#00e17d;fill-opacity:1;stroke-width:0.436033;paint-order:stroke fill markers"
       id="path2-1"
       cx="172.69023"
       cy="182.48393"
       rx="10.748698"
       ry="7.0279946" />
    <path
       style="fill:#00bc69;fill-opacity:1;stroke-width:0.327025;paint-order:stroke fill markers"
       d="m 160.70131,168.53131 5.58105,12.40234 8.68164,0.31006 3.72071,-5.58106 6.82128,-3.41064 -5.89111,-0.62012 -6.20117,4.65089 1.55029,-6.8213 2.79053,-5.27099 -6.51123,6.20117 v 7.75146 l -4.34082,-4.34082 z"
       id="path3-49" />
    <path
       style="fill:#6a6a6a;fill-opacity:1;stroke-width:0.211507;paint-order:stroke fill markers"
       d="m 11.856641,220.30788 0.87546,2.3886 2.407513,-1.28617 0.437729,-2.57234 -2.626378,-1.10243 z"
       id="path4" />
    <path
       style="fill:#6a6a6a;fill-opacity:1;stroke-width:0.211507;paint-order:stroke fill markers"
       d="m 23.779427,213.46179 0.87546,2.3886 2.407513,-1.28617 0.437729,-2.57234 -2.626378,-1.10243 z"
       id="path4-4" />
    <path
       style="fill:#6a6a6a;fill-opacity:1;stroke-width:0.211507;paint-order:stroke fill markers"
       d="m 63.516537,217.01713 0.87546,2.3886 2.407513,-1.28617 0.437729,-2.57234 -2.626378,-1.10243 z"
       id="path4-8" />
    <path
       style="fill:#6a6a6a;fill-opacity:1;stroke-width:0.211507;paint-order:stroke fill markers"
       d="m 107.18932,210.20411 0.87546,2.3886 2.40752,-1.28617 0.43773,-2.57234 -2.62638,-1.10243 z"
       id="path4-7" />
    <path
       style="fill:#6a6a6a;fill-opacity:1;stroke-width:0.211507;paint-order:stroke fill markers"
       d="m 137.76524,216.65333 0.87546,2.3886 2.40751,-1.28617 0.43773,-2.57234 -2.62638,-1.10243 z"
       id="path4-0" />
    <path
       style="fill:#6a6a6a;fill-opacity:1;stroke-width:0.211507;paint-order:stroke fill markers"
       d="m 182.89323,217.08327 0.87546,2.3886 2.40751,-1.28617 0.43773,-2.57234 -2.62637,-1.10243 z"
       id="path4-49" />
  </g>
</svg>
